<svg width="86" height="24" viewBox="0 0 86 24" fill="none" xmlns="http://www.w3.org/2000/svg">
<g clip-path="url(#clip0_1288_1169)">
<path d="M9.31334 3.97266V10.7424H2.99819V3.97266H0V20.1327H2.99819V13.5828H9.31334V20.1327H12.3115V3.97266H9.31334Z" fill="#33475B"/>
<path d="M21.9069 14.9099C21.9069 15.5575 21.6456 16.1786 21.1804 16.6366C20.7152 17.0946 20.0843 17.3518 19.4265 17.3518C18.7687 17.3518 18.1378 17.0946 17.6726 16.6366C17.2075 16.1786 16.9461 15.5575 16.9461 14.9099V7.98828H14.1022V14.9099C14.1022 16.2988 14.6626 17.6308 15.6601 18.6128C16.6577 19.5949 18.0106 20.1466 19.4214 20.1466C20.8321 20.1466 22.1851 19.5949 23.1826 18.6128C24.1801 17.6308 24.7405 16.2988 24.7405 14.9099V7.98828H21.9069V14.9099Z" fill="#33475B"/>
<path d="M42.9781 8.70035C42.9781 7.28161 43.9315 6.83183 44.9759 6.83183C45.8176 6.83183 46.9297 7.46238 47.6568 8.22743L49.5195 6.06678C48.5896 4.82882 46.7034 3.97266 45.1595 3.97266C42.0747 3.97266 39.8433 5.75151 39.8433 8.70035C39.8433 14.1714 46.6359 12.4359 46.6359 15.4976C46.6359 16.442 45.7045 17.2764 44.638 17.2764C42.9561 17.2764 42.4111 16.4665 41.6384 15.6104L39.5715 17.7262C40.8936 19.3243 42.5242 20.1356 44.4779 20.1356C47.4085 20.1356 49.7663 18.3351 49.7663 15.5207C49.7663 9.44659 42.9737 11.3339 42.9737 8.70035" fill="#33475B"/>
<path d="M84.9996 17.5522C83.3191 17.5522 82.8416 16.8363 82.8416 15.7401V10.888H85.4535V8.42942H82.8416V5.18555L79.958 6.45967V16.3431C79.958 18.8711 81.7296 20.1452 84.1593 20.1452C84.5404 20.1521 84.9212 20.122 85.2963 20.0556L85.9999 17.5059C85.6826 17.5276 85.3183 17.5493 84.9996 17.5493" fill="#33475B"/>
<path d="M32.7318 8.06911C31.3231 8.06911 30.3403 8.47116 29.3899 9.3895V4.07031H26.5415V13.9292C26.5415 17.6199 29.2518 20.1479 32.297 20.1479C35.6757 20.1479 38.6474 17.5751 38.6474 14.11C38.6474 10.6882 35.9122 8.07055 32.7318 8.07055V8.06911ZM32.7142 17.3264C32.075 17.3264 31.4502 17.1398 30.9187 16.7901C30.3873 16.4405 29.9731 15.9436 29.7285 15.3622C29.4838 14.7809 29.4198 14.1411 29.5445 13.524C29.6692 12.9068 29.977 12.3399 30.429 11.8949C30.881 11.4499 31.4568 11.1469 32.0837 11.0241C32.7106 10.9014 33.3604 10.9644 33.9509 11.2052C34.5415 11.446 35.0462 11.8538 35.4013 12.377C35.7564 12.9002 35.946 13.5154 35.946 14.1447C35.946 14.9885 35.6055 15.7978 34.9994 16.3945C34.3933 16.9911 33.5713 17.3264 32.7142 17.3264Z" fill="#33475B"/>
<path d="M63.6596 13.9618C63.6596 10.4909 60.6938 7.92383 57.3092 7.92383C54.2641 7.92383 51.5538 10.4518 51.5538 14.1426V24.0072H54.4021V18.6808C55.3511 19.5977 56.3353 20.0012 57.7426 20.0012C60.9229 20.0012 63.6582 17.385 63.6582 13.9618H63.6596ZM60.9626 13.9271C60.9626 14.5564 60.7731 15.1715 60.4179 15.6947C60.0628 16.2179 59.5581 16.6258 58.9676 16.8666C58.3771 17.1074 57.7273 17.1704 57.1004 17.0476C56.4735 16.9249 55.8976 16.6218 55.4456 16.1769C54.9937 15.7319 54.6859 15.165 54.5612 14.5478C54.4365 13.9306 54.5005 13.2909 54.7451 12.7095C54.9897 12.1281 55.4039 11.6312 55.9354 11.2816C56.4668 10.932 57.0917 10.7454 57.7308 10.7454C58.588 10.7454 59.41 11.0806 60.016 11.6773C60.6221 12.274 60.9626 13.0832 60.9626 13.9271Z" fill="#33475B"/>
<path d="M72.8615 7.78738V4.97015C73.2397 4.79618 73.5599 4.52005 73.7848 4.1739C74.0098 3.82774 74.1302 3.4258 74.1322 3.01486V2.94978C74.1322 2.37444 73.9 1.82266 73.4868 1.41583C73.0735 1.009 72.5131 0.780451 71.9287 0.780451H71.8626C71.2782 0.780451 70.7177 1.009 70.3045 1.41583C69.8913 1.82266 69.6591 2.37444 69.6591 2.94978V3.01486C69.6611 3.4258 69.7815 3.82774 70.0065 4.1739C70.2314 4.52005 70.5516 4.79618 70.9298 4.97015V7.78738C69.8429 7.95108 68.8192 8.39462 67.9624 9.07307L60.1152 3.05535C60.1707 2.85691 60.2003 2.65231 60.2033 2.44649C60.2042 1.96303 60.0594 1.49018 59.7873 1.08774C59.5151 0.685302 59.1279 0.371358 58.6745 0.18562C58.2211 -0.00011926 57.722 -0.0493087 57.2402 0.0442731C56.7584 0.137855 56.3156 0.370004 55.9679 0.711356C55.6201 1.05271 55.383 1.48793 55.2865 1.96197C55.1901 2.436 55.2385 2.92756 55.4259 3.37447C55.6132 3.82137 55.9309 4.20355 56.3389 4.47265C56.7468 4.74175 57.2267 4.88569 57.7178 4.88627C58.1472 4.88438 58.5686 4.77168 58.94 4.55942L66.6683 10.4788C65.9739 11.5114 65.6115 12.7259 65.6286 13.9642C65.6456 15.2025 66.0412 16.407 66.7638 17.4206L64.4134 19.7346C64.2233 19.6748 64.0253 19.6432 63.8258 19.6406C63.4227 19.6409 63.0287 19.7588 62.6936 19.9795C62.3585 20.2002 62.0974 20.5137 61.9433 20.8804C61.7891 21.2472 61.7489 21.6507 61.8276 22.0399C61.9063 22.4292 62.1005 22.7867 62.3855 23.0674C62.6706 23.348 63.0338 23.5391 63.4291 23.6166C63.8245 23.6941 64.2344 23.6545 64.6069 23.5028C64.9794 23.351 65.2978 23.094 65.522 22.7641C65.7461 22.4342 65.8659 22.0463 65.8662 21.6494C65.8637 21.453 65.8315 21.258 65.7707 21.0709L68.0961 18.7815C68.8544 19.356 69.7361 19.752 70.6738 19.9392C71.6115 20.1264 72.5803 20.0998 73.506 19.8614C74.4316 19.6231 75.2896 19.1794 76.0142 18.5642C76.7387 17.9491 77.3107 17.1788 77.6862 16.3124C78.0618 15.446 78.2309 14.5066 78.1807 13.5659C78.1305 12.6252 77.8622 11.7084 77.3966 10.8855C76.9309 10.0627 76.2801 9.35565 75.494 8.81864C74.7079 8.28164 73.8074 7.92887 72.8615 7.78738ZM71.8978 17.0519C71.2618 17.0513 70.6401 16.8651 70.1115 16.5168C69.5829 16.1685 69.171 15.6737 68.9279 15.095C68.6848 14.5163 68.6214 13.8797 68.7458 13.2655C68.8701 12.6514 69.1766 12.0873 69.6265 11.6446C70.0764 11.2019 70.6495 10.9004 71.2733 10.7782C71.8972 10.6561 72.5439 10.7188 73.1316 10.9584C73.7193 11.198 74.2216 11.6037 74.5752 12.1243C74.9287 12.6449 75.1176 13.257 75.1178 13.8832C75.1178 14.7232 74.7789 15.5288 74.1756 16.1228C73.5723 16.7167 72.754 17.0504 71.9008 17.0504" fill="#FF7A59"/>
</g>
<defs>
<clipPath id="clip0_1288_1169">
<rect width="86" height="24" fill="white"/>
</clipPath>
</defs>
</svg>
