<svg width="84" height="28" viewBox="0 0 84 28" fill="none" xmlns="http://www.w3.org/2000/svg">
<g clip-path="url(#clip0_1288_1179)">
<path d="M35.7463 14.3598C35.7463 18.2463 32.6611 21.1102 28.8749 21.1102C25.0888 21.1102 22.0036 18.2463 22.0036 14.3598C22.0036 10.4459 25.0888 7.60938 28.8749 7.60938C32.6611 7.60938 35.7463 10.4459 35.7463 14.3598ZM32.7383 14.3598C32.7383 11.9311 30.9502 10.2694 28.8749 10.2694C26.7997 10.2694 25.0116 11.9311 25.0116 14.3598C25.0116 16.7642 26.7997 18.4502 28.8749 18.4502C30.9502 18.4502 32.7383 16.7611 32.7383 14.3598Z" fill="#EA4335"/>
<path d="M50.5698 14.3598C50.5698 18.2463 47.4847 21.1102 43.6985 21.1102C39.9123 21.1102 36.8272 18.2463 36.8272 14.3598C36.8272 10.4489 39.9123 7.60938 43.6985 7.60938C47.4847 7.60938 50.5698 10.4459 50.5698 14.3598ZM47.5619 14.3598C47.5619 11.9311 45.7738 10.2694 43.6985 10.2694C41.6232 10.2694 39.8351 11.9311 39.8351 14.3598C39.8351 16.7642 41.6232 18.4502 43.6985 18.4502C45.7738 18.4502 47.5619 16.7611 47.5619 14.3598Z" fill="#FBBC05"/>
<path d="M64.7757 8.0172V20.1363C64.7757 25.1215 61.7924 27.1576 58.2657 27.1576C54.9458 27.1576 52.9477 24.9694 52.1942 23.1798L54.813 22.1055C55.2794 23.2042 56.422 24.5007 58.2626 24.5007C60.5201 24.5007 61.9191 23.1281 61.9191 20.5442V19.5733H61.8141C61.1408 20.392 59.8438 21.1072 58.207 21.1072C54.7821 21.1072 51.6445 18.1672 51.6445 14.3842C51.6445 10.5737 54.7821 7.60938 58.207 7.60938C59.8407 7.60938 61.1377 8.32459 61.8141 9.11894H61.9191V8.02024H64.7757V8.0172ZM62.1322 14.3842C62.1322 12.0072 60.5232 10.2694 58.4757 10.2694C56.4004 10.2694 54.6617 12.0072 54.6617 14.3842C54.6617 16.7368 56.4004 18.4502 58.4757 18.4502C60.5232 18.4502 62.1322 16.7368 62.1322 14.3842Z" fill="#4285F4"/>
<path d="M69.4853 0.912109V20.6947H66.5515V0.912109H69.4853Z" fill="#34A853"/>
<path d="M80.918 16.5807L83.2527 18.1146C82.4992 19.2133 80.6833 21.1063 77.5457 21.1063C73.6545 21.1063 70.7485 18.142 70.7485 14.3559C70.7485 10.3416 73.6792 7.60547 77.2091 7.60547C80.7636 7.60547 82.5023 10.3933 83.0705 11.8998L83.3824 12.6668L74.2258 16.4042C74.9269 17.7585 76.017 18.4494 77.5457 18.4494C79.0774 18.4494 80.1398 17.7068 80.918 16.5807ZM73.7317 14.152L79.8526 11.6472C79.516 10.8042 78.503 10.2168 77.311 10.2168C75.7823 10.2168 73.6545 11.5468 73.7317 14.152Z" fill="#EA4335"/>
<path d="M10.8985 12.6026V9.73867H20.6913C20.787 10.2378 20.8364 10.8282 20.8364 11.4674C20.8364 13.6161 20.2404 16.273 18.3195 18.1661C16.4511 20.0834 14.0639 21.1061 10.9016 21.1061C5.0401 21.1061 0.111275 16.4008 0.111275 10.6243C0.111275 4.8478 5.0401 0.142578 10.9016 0.142578C14.1442 0.142578 16.4542 1.39649 18.1898 3.03084L16.1392 5.05171C14.8947 3.90127 13.2085 3.00649 10.8985 3.00649C6.61819 3.00649 3.27054 6.40606 3.27054 10.6243C3.27054 14.8426 6.61819 18.2421 10.8985 18.2421C13.6748 18.2421 15.256 17.1434 16.2689 16.1452C17.0904 15.3356 17.6308 14.1791 17.8439 12.5995L10.8985 12.6026Z" fill="#4285F4"/>
</g>
<defs>
<clipPath id="clip0_1288_1179">
<rect width="84" height="28" fill="white"/>
</clipPath>
</defs>
</svg>
