<svg width="128" height="32" viewBox="0 0 128 32" fill="none" xmlns="http://www.w3.org/2000/svg">
<path d="M9.35733 20.9822C7.96775 20.9822 6.79653 20.5058 5.84368 19.5529C4.93053 18.6001 4.4541 17.4289 4.4541 15.9996C4.4541 14.5703 4.93053 13.3991 5.84368 12.4462C6.79653 11.4934 7.96775 11.0169 9.35733 11.0169C10.3896 11.0169 11.3027 11.275 12.0372 11.7713C12.335 10.6596 12.7717 9.58766 13.2878 8.5951C12.1365 7.99957 10.7866 7.66211 9.37717 7.66211C6.99504 7.66211 4.99007 8.45615 3.38213 10.0641C1.79404 11.6522 1 13.6174 1 15.9996C1 18.342 1.79404 20.3073 3.38213 21.9351C4.99007 23.5628 6.99504 24.337 9.37717 24.337C10.7866 24.337 12.1166 23.9996 13.268 23.404C12.732 22.3916 12.3151 21.3395 12.0174 20.2279C11.2829 20.7241 10.3499 20.9822 9.35733 20.9822Z" fill="#40C872"/>
<path d="M55.4317 4.62491C52.9304 4.40654 51.6798 5.45866 51.6798 7.76139V8.079H55.4317V11.3743H51.6798V23.94H48.2456V11.3743H45.8436V8.079H48.2456V7.76139C48.2456 3.414 50.727 1.03186 55.4118 1.32963V4.62491H55.4317Z" fill="#40C872"/>
<path d="M66.1514 4.62491C63.6502 4.40654 62.3996 5.45866 62.3996 7.76139V8.079H66.1514V11.3743H62.3996V23.94H58.9653V11.3743H56.5633V8.079H58.9653V7.76139C58.9653 3.414 61.4467 1.03186 66.1316 1.32963V4.62491H66.1514Z" fill="#40C872"/>
<path d="M69.6055 17.4702C70.1216 19.8722 72.0472 21.2221 74.6874 21.2221C76.4938 21.2221 77.8635 20.5471 78.7767 19.2568L81.5955 20.9044C80.0472 23.227 77.7246 24.3585 74.6477 24.3585C72.0869 24.3585 69.9826 23.5645 68.3946 22.0161C66.8065 20.428 66.0124 18.423 66.0124 16.0211C66.0124 13.6389 66.8065 11.6737 68.3549 10.0856C69.9032 8.47763 71.9479 7.68359 74.3896 7.68359C76.7122 7.68359 78.598 8.51734 80.1067 10.1253C81.5955 11.7332 82.3499 13.7382 82.3499 16.0608C82.3499 16.4181 82.3102 16.8945 82.2308 17.4901H69.6055V17.4702ZM78.8958 14.691C78.4194 12.1302 76.6129 10.8002 74.3697 10.8002C71.8288 10.8002 70.062 12.2891 69.5856 14.691H78.8958Z" fill="#40C872"/>
<path d="M87.4714 17.4702C87.9875 19.8722 89.9131 21.2221 92.5533 21.2221C94.3598 21.2221 95.7295 20.5471 96.6426 19.2568L99.4615 20.9044C97.9131 23.227 95.5905 24.3585 92.5136 24.3585C89.9528 24.3585 87.8486 23.5645 86.2605 22.0161C84.6724 20.428 83.8784 18.423 83.8784 16.0211C83.8784 13.6389 84.6724 11.6737 86.2208 10.0856C87.7692 8.47763 89.8139 7.68359 92.2555 7.68359C94.5781 7.68359 96.464 8.51734 97.9726 10.1253C99.4615 11.7332 100.216 13.7382 100.216 16.0608C100.216 16.4181 100.176 16.8945 100.097 17.4901H87.4714V17.4702ZM96.7617 14.691C96.2853 12.1302 94.4788 10.8002 92.2357 10.8002C89.6947 10.8002 87.928 12.2891 87.4516 14.691H96.7617Z" fill="#40C872"/>
<path d="M102.221 5.0633C101.367 4.17 101.367 2.83998 102.221 1.98638C103.074 1.09308 104.464 1.09308 105.337 1.98638C106.191 2.83998 106.191 4.17 105.298 5.0633C104.424 5.93675 103.094 5.93675 102.221 5.0633ZM102.062 23.9417V8.08068H105.496V23.9417H102.062Z" fill="#40C872"/>
<path d="M122.032 14.213V23.94H118.598V14.5504C118.598 12.1683 117.228 10.878 115.045 10.878C112.643 10.878 111.015 12.3668 111.015 15.4437V23.94H107.581V8.07898H111.015V10.1038C112.067 8.49585 113.675 7.66211 115.938 7.66211C119.591 7.66211 122.032 10.1435 122.032 14.213Z" fill="#40C872"/>
<path d="M29.2283 32C20.4144 32 13.2283 24.8338 13.2283 16C13.2283 7.18611 20.3945 0 29.2283 0C38.0422 0 45.2283 7.16626 45.2283 16C45.2283 24.8338 38.062 32 29.2283 32ZM29.2283 3.77171C22.4789 3.77171 17 9.25063 17 16C17 22.7494 22.4789 28.2283 29.2283 28.2283C35.9776 28.2283 41.4566 22.7494 41.4566 16C41.4566 9.25063 35.9776 3.77171 29.2283 3.77171Z" fill="#40C872"/>
</svg>
