<svg width="32" height="32" viewBox="0 0 32 32" fill="none" xmlns="http://www.w3.org/2000/svg">
<path d="M6.66667 1.33398H2.66667C2.31304 1.33398 1.9739 1.47446 1.72386 1.72451C1.47381 1.97456 1.33333 2.3137 1.33333 2.66732V29.334C1.33333 29.6876 1.47381 30.0267 1.72386 30.2768C1.9739 30.5268 2.31304 30.6673 2.66667 30.6673H6.66667V1.33398Z" fill="#A8E6BF"/>
<path d="M9.33333 30.6673H22.6667V1.33398H9.33333V30.6673ZM16 25.334C15.6464 25.334 15.3072 25.1935 15.0572 24.9435C14.8071 24.6934 14.6667 24.3543 14.6667 24.0007C14.6667 23.647 14.8071 23.3079 15.0572 23.0578C15.3072 22.8078 15.6464 22.6673 16 22.6673C16.3536 22.6673 16.6928 22.8078 16.9428 23.0578C17.1929 23.3079 17.3333 23.647 17.3333 24.0007C17.3333 24.3543 17.1929 24.6934 16.9428 24.9435C16.6928 25.1935 16.3536 25.334 16 25.334ZM16 6.66732C16.3536 6.66732 16.6928 6.80779 16.9428 7.05784C17.1929 7.30789 17.3333 7.64703 17.3333 8.00065C17.3333 8.35427 17.1929 8.69341 16.9428 8.94346C16.6928 9.19351 16.3536 9.33398 16 9.33398C15.6464 9.33398 15.3072 9.19351 15.0572 8.94346C14.8071 8.69341 14.6667 8.35427 14.6667 8.00065C14.6667 7.64703 14.8071 7.30789 15.0572 7.05784C15.3072 6.80779 15.6464 6.66732 16 6.66732ZM16 14.6673C16.3536 14.6673 16.6928 14.8078 16.9428 15.0578C17.1929 15.3079 17.3333 15.647 17.3333 16.0007C17.3333 16.3543 17.1929 16.6934 16.9428 16.9435C16.6928 17.1935 16.3536 17.334 16 17.334C15.6464 17.334 15.3072 17.1935 15.0572 16.9435C14.8071 16.6934 14.6667 16.3543 14.6667 16.0007C14.6667 15.647 14.8071 15.3079 15.0572 15.0578C15.3072 14.8078 15.6464 14.6673 16 14.6673Z" fill="#78D89C"/>
<path d="M29.3333 1.33398H25.3333V30.6673H29.3333C29.687 30.6673 30.0261 30.5268 30.2761 30.2768C30.5262 30.0267 30.6667 29.6876 30.6667 29.334V2.66732C30.6667 2.3137 30.5262 1.97456 30.2761 1.72451C30.0261 1.47446 29.687 1.33398 29.3333 1.33398Z" fill="#1DB5BE"/>
</svg>
