<svg width="32" height="32" viewBox="0 0 32 32" fill="none" xmlns="http://www.w3.org/2000/svg">
<path d="M30.6667 8.00065V2.66732C30.6667 2.3137 30.5262 1.97456 30.2762 1.72451C30.0261 1.47446 29.687 1.33398 29.3333 1.33398H2.66668C2.31305 1.33398 1.97392 1.47446 1.72387 1.72451C1.47382 1.97456 1.33334 2.3137 1.33334 2.66732V8.00065H30.6667Z" fill="#1DB5BE"/>
<path d="M1.33334 10.668V29.3346C1.33334 29.6883 1.47382 30.0274 1.72387 30.2774C1.97392 30.5275 2.31305 30.668 2.66668 30.668H9.33334V10.668H1.33334Z" fill="#A8E6BF"/>
<path d="M12 30.668H29.3333C29.687 30.668 30.0261 30.5275 30.2761 30.2774C30.5262 30.0274 30.6667 29.6883 30.6667 29.3346V10.668H12V30.668Z" fill="#78D89C"/>
</svg>
