<svg width="48" height="49" viewBox="0 0 48 49" fill="none" xmlns="http://www.w3.org/2000/svg">
<path d="M20 21.834H10.6667C10.3131 21.834 9.97392 21.6935 9.72387 21.4435C9.47382 21.1934 9.33334 20.8543 9.33334 20.5007V11.1673C9.33334 10.8137 9.47382 10.4746 9.72387 10.2245C9.97392 9.97446 10.3131 9.83398 10.6667 9.83398H20C20.3536 9.83398 20.6928 9.97446 20.9428 10.2245C21.1929 10.4746 21.3333 10.8137 21.3333 11.1673V20.5007C21.3333 20.8543 21.1929 21.1934 20.9428 21.4435C20.6928 21.6935 20.3536 21.834 20 21.834Z" fill="#78D89C"/>
<path d="M20 39.168H10.6667C10.3131 39.168 9.97392 39.0275 9.72387 38.7774C9.47382 38.5274 9.33334 38.1883 9.33334 37.8346V28.5013C9.33334 28.1477 9.47382 27.8085 9.72387 27.5585C9.97392 27.3084 10.3131 27.168 10.6667 27.168H20C20.3536 27.168 20.6928 27.3084 20.9428 27.5585C21.1929 27.8085 21.3333 28.1477 21.3333 28.5013V37.8346C21.3333 38.1883 21.1929 38.5274 20.9428 38.7774C20.6928 39.0275 20.3536 39.168 20 39.168Z" fill="#78D89C"/>
<path d="M25.3333 11.168H38.6667V13.8346H25.3333V11.168Z" fill="#1DB5BE"/>
<path d="M38.6667 28.5H25.3333V31.1667H38.6667V28.5Z" fill="#1DB5BE"/>
<path d="M38.6667 35.168H25.3333V37.8346H38.6667V35.168Z" fill="#A8E6BF"/>
<path d="M38.6667 17.834H25.3333V20.5007H38.6667V17.834Z" fill="#A8E6BF"/>
</svg>
